{
    "accessors": [
        {
            "bufferView": 2,
            "componentType": 5126,
            "count": 6201,
            "max": [
                1.0766559839248657,
                0.8860229849815369,
                3.7957940101623535
            ],
            "min": [
                -1.0766570568084717,
                -0.4015029966831207,
                0.0016700000269338489
            ],
            "type": "VEC3"
        },
        {
            "bufferView": 2,
            "byteOffset": 74412,
            "componentType": 5126,
            "count": 6201,
            "max": [
                0.9999151229858398,
                0.9998588562011719,
                0.9996311068534851
            ],
            "min": [
                -0.9998230338096619,
                -0.9999604225158691,
                -1.0
            ],
            "type": "VEC3"
        },
        {
            "bufferView": 1,
            "componentType": 5126,
            "count": 6201,
            "max": [
                0.9941779971122742,
                0.9857720136642456
            ],
            "min": [
                0.006816000211983919,
                0.012839999981224537
            ],
            "type": "VEC2"
        },
        {
            "bufferView": 0,
            "componentType": 5125,
            "count": 27291,
            "type": "SCALAR"
        }
    ],
    "asset": {
        "extras": {
            "author": "karmematoshi (https://sketchfab.com/karmematoshi)",
            "license": "CC-BY-4.0 (http://creativecommons.org/licenses/by/4.0/)",
            "source": "https://sketchfab.com/3d-models/shiro-no-game-no-life-c1408c6d41a04db0aeb6da17e81f3573",
            "title": "Shiro (No Game No Life)"
        },
        "generator": "Sketchfab-11.37.1",
        "version": "2.0"
    },
    "bufferViews": [
        {
            "buffer": 0,
            "byteLength": 109164,
            "name": "floatBufferViews",
            "target": 34963
        },
        {
            "buffer": 0,
            "byteLength": 49608,
            "byteOffset": 109164,
            "byteStride": 8,
            "name": "floatBufferViews",
            "target": 34962
        },
        {
            "buffer": 0,
            "byteLength": 148824,
            "byteOffset": 158772,
            "byteStride": 12,
            "name": "floatBufferViews",
            "target": 34962
        }
    ],
    "buffers": [
        {
            "byteLength": 307596,
            "uri": "Shiro.bin"
        }
    ],
    "images": [
        {
            "uri": "textures/Dperkedel_nasi_udukRIP_STUFF_YOACGVRfbxNG002_Shiro_UGC7_2_baseColor.png"
        }
    ],
    "materials": [
        {
            "doubleSided": true,
            "name": "Dperkedel_nasi_udukRIP_STUFF_YOACGVRfbxNG002_Shiro_UGC7_2",
            "pbrMetallicRoughness": {
                "baseColorTexture": {
                    "index": 0
                },
                "metallicFactor": 0.0,
                "roughnessFactor": 0.8063508326896291
            }
        }
    ],
    "meshes": [
        {
            "name": "Object_0",
            "primitives": [
                {
                    "attributes": {
                        "NORMAL": 1,
                        "POSITION": 0,
                        "TEXCOORD_0": 2
                    },
                    "indices": 3,
                    "material": 0,
                    "mode": 4
                }
            ]
        }
    ],
    "nodes": [
        {
            "children": [
                1
            ],
            "matrix": [
                1.0,
                0.0,
                0.0,
                0.0,
                0.0,
                2.220446049250313e-16,
                -1.0,
                0.0,
                0.0,
                1.0,
                2.220446049250313e-16,
                0.0,
                0.0,
                0.0,
                0.0,
                1.0
            ],
            "name": "Sketchfab_model"
        },
        {
            "children": [
                2
            ],
            "name": "Shiro.obj.cleaner.materialmerger.gles"
        },
        {
            "mesh": 0,
            "name": "Object_2"
        }
    ],
    "samplers": [
        {
            "magFilter": 9729,
            "minFilter": 9987,
            "wrapS": 10497,
            "wrapT": 10497
        }
    ],
    "scene": 0,
    "scenes": [
        {
            "name": "Sketchfab_Scene",
            "nodes": [
                0
            ]
        }
    ],
    "textures": [
        {
            "sampler": 0,
            "source": 0
        }
    ]
}